<svg xmlns="http://www.w3.org/2000/svg" viewBox="0 0 64 64">
  <!-- Outer ring -->
  <circle cx="32" cy="32" r="30" fill="#1B3A5C"/>
  <circle cx="32" cy="32" r="28" fill="none" stroke="#fff" stroke-width="0.8" opacity="0.6"/>
  <circle cx="32" cy="32" r="25" fill="none" stroke="#fff" stroke-width="0.5" opacity="0.4"/>
  <!-- Sky -->
  <circle cx="32" cy="32" r="24" fill="#D6EEF5"/>
  <!-- Green hills -->
  <path d="M8 38 Q20 32 32 36 Q44 32 56 38 L56 56 Q44 56 32 56 Q20 56 8 56 Z" fill="#6B9E3F"/>
  <!-- River -->
  <path d="M10 36 Q22 40 32 35 Q42 30 54 36 L54 40 Q42 34 32 39 Q22 44 10 40 Z" fill="#4BA6D1" opacity="0.8"/>
  <!-- Left fish (brown trout) -->
  <ellipse cx="22" cy="24" rx="9" ry="3.5" fill="#C4883D" stroke="#8B6914" stroke-width="0.5" transform="rotate(-15 22 24)"/>
  <polygon points="30,22 34,19 34,27" fill="#C4883D" stroke="#8B6914" stroke-width="0.5" transform="rotate(-15 22 24)"/>
  <circle cx="16" cy="23" r="1.2" fill="white"/>
  <circle cx="16" cy="23" r="0.6" fill="#333"/>
  <circle cx="21" cy="22.5" r="0.6" fill="#A0522D"/>
  <circle cx="24" cy="23.5" r="0.6" fill="#A0522D"/>
  <!-- Right fish (rainbow trout) -->
  <ellipse cx="42" cy="24" rx="9" ry="3.5" fill="#B8C8D4" stroke="#7A8B96" stroke-width="0.5" transform="rotate(15 42 24)"/>
  <polygon points="34,22 30,19 30,27" fill="#B8C8D4" stroke="#7A8B96" stroke-width="0.5" transform="rotate(15 42 24)"/>
  <line x1="35" y1="24.5" x2="49" y2="23.5" stroke="#E8829B" stroke-width="1.2" stroke-linecap="round" transform="rotate(15 42 24)"/>
  <circle cx="48" cy="23" r="1.2" fill="white"/>
  <circle cx="48" cy="23" r="0.6" fill="#333"/>
</svg>
